<?xml version="1.0" encoding="iso-8859-1"?>
<!-- Generator: Adobe Illustrator 19.0.0, SVG Export Plug-In . SVG Version: 6.00 Build 0)  -->
<svg version="1.1" id="Capa_1" xmlns="http://www.w3.org/2000/svg" xmlns:xlink="http://www.w3.org/1999/xlink" x="0px" y="0px"
	 viewBox="0 0 512 512" style="enable-background:new 0 0 512 512;" xml:space="preserve">
<g>
	<path style="fill:#DC6C33;" d="M59.733,8.533h392.533c28.277,0,51.2,22.923,51.2,51.2v392.533c0,28.277-22.923,51.2-51.2,51.2
		H59.733c-28.277,0-51.2-22.923-51.2-51.2V59.733C8.533,31.456,31.456,8.533,59.733,8.533z"/>
	<g>
		<circle style="fill:#FAEDBD;" cx="72.533" cy="72.533" r="21.333"/>
		<circle style="fill:#FAEDBD;" cx="439.467" cy="72.533" r="21.333"/>
		<circle style="fill:#FAEDBD;" cx="72.533" cy="439.467" r="21.333"/>
		<circle style="fill:#FAEDBD;" cx="439.467" cy="439.467" r="21.333"/>
		<path style="fill:#FAEDBD;" d="M206.4,324.267h83.733c9.426,0,17.067-7.641,17.067-17.067v-27.064
			c0-4.526,1.798-8.867,4.999-12.068l7.069-7.069c3.201-3.201,7.542-4.999,12.068-4.999h28.528c4.526,0,8.867-1.798,12.068-4.999
			l32.669-32.669c3.201-3.201,4.999-7.542,4.999-12.068v-71.195c0-4.526-1.798-8.867-4.999-12.068l-32.669-32.669
			c-3.201-3.201-7.542-4.999-12.068-4.999H160.669c-4.526,0-8.867,1.798-12.068,4.999l-32.669,32.669
			c-3.201,3.201-4.999,7.542-4.999,12.068v52.664c0,9.426,7.641,17.067,17.067,17.067h34.133c9.426,0,17.067-7.641,17.067-17.067
			v-18.531c0-4.526,1.798-8.867,4.999-12.068l7.069-7.069c3.201-3.201,7.542-4.999,12.068-4.999h105.328
			c4.526,0,8.867,1.798,12.068,4.999l7.069,7.069c3.201,3.201,4.999,7.542,4.999,12.068v27.064c0,9.426-7.641,17.067-17.067,17.067
			h-44.131c-4.526,0-8.867,1.798-12.068,4.999l-49.736,49.736c-3.201,3.201-4.999,7.542-4.999,12.068v44.131"/>
		<path style="fill:#FAEDBD;" d="M221.867,366.933h68.267c9.426,0,17.067,7.641,17.067,17.067v34.133
			c0,9.426-7.641,17.067-17.067,17.067h-68.267c-9.426,0-17.067-7.641-17.067-17.067V384
			C204.8,374.574,212.441,366.933,221.867,366.933z"/>
	</g>
	<path style="fill:#DD5919;" d="M59.733,8.533h392.533c28.277,0,51.2,22.923,51.2,51.2v392.533c0,28.277-22.923,51.2-51.2,51.2
		H59.733c-28.277,0-51.2-22.923-51.2-51.2V59.733C8.533,31.456,31.456,8.533,59.733,8.533z"/>
	<path style="fill:#FF6E2C;" d="M56.926,8.533h362.906c27.316,0,49.459,22.144,49.459,49.459v396.015
		c0,27.316-22.144,49.459-49.459,49.459H56.926c-27.316,0-49.459-22.144-49.459-49.459V57.993
		C7.467,30.677,29.61,8.533,56.926,8.533z"/>
	<g>
		<circle style="fill:#FFBA00;" cx="72.533" cy="72.533" r="21.333"/>
		<circle style="fill:#FFBA00;" cx="439.467" cy="72.533" r="21.333"/>
		<circle style="fill:#FFBA00;" cx="72.533" cy="439.467" r="21.333"/>
		<circle style="fill:#FFBA00;" cx="439.467" cy="439.467" r="21.333"/>
		<path style="fill:#FFBA00;" d="M409.6,135.083v71.168c-0.002,4.548-1.814,8.907-5.035,12.117l-32.597,32.597
			c-3.21,3.221-7.57,5.032-12.117,5.035h-28.501c-4.547,0.002-8.907,1.814-12.117,5.035l-6.997,6.997
			c-3.221,3.21-5.033,7.57-5.035,12.117V307.2c-0.028,9.414-7.652,17.039-17.067,17.067H204.8v-44.117
			c0.002-4.547,1.814-8.907,5.035-12.117l49.664-49.664c3.21-3.221,7.57-5.032,12.117-5.035h44.117
			c9.414-0.028,17.039-7.653,17.067-17.067v-27.051c-0.002-4.547-1.814-8.907-5.035-12.117l-6.997-6.997
			c-3.21-3.221-7.57-5.032-12.117-5.035H203.349c-4.548,0.002-8.907,1.814-12.117,5.035l-6.997,6.997
			c-3.221,3.21-5.033,7.57-5.035,12.117v18.517c-0.028,9.414-7.653,17.039-17.067,17.067H128
			c-9.414-0.028-17.039-7.653-17.067-17.067v-52.651c0.002-4.547,1.814-8.907,5.035-12.117l32.597-32.597
			c3.21-3.221,7.57-5.032,12.117-5.035h199.168c4.547,0.002,8.907,1.814,12.117,5.035l32.597,32.597
			C407.786,126.175,409.598,130.535,409.6,135.083z"/>
		<path style="fill:#FFBA00;" d="M221.867,366.933h68.267c9.426,0,17.067,7.641,17.067,17.067v34.133
			c0,9.426-7.641,17.067-17.067,17.067h-68.267c-9.426,0-17.067-7.641-17.067-17.067V384
			C204.8,374.574,212.441,366.933,221.867,366.933z"/>
	</g>
	<g>
		<path style="fill:#FFC500;" d="M375.467,135.083v71.168c-0.002,4.548-1.814,8.907-5.035,12.117l-32.597,32.597
			c-3.21,3.221-7.57,5.032-12.117,5.035h-28.501c-4.547,0.002-8.907,1.814-12.117,5.035l-6.997,6.997
			c-3.221,3.21-5.033,7.57-5.035,12.117V307.2c-0.028,9.414-7.652,17.039-17.067,17.067h-51.2v-44.117
			c0.002-4.547,1.814-8.907,5.035-12.117l49.664-49.664c3.21-3.221,7.57-5.032,12.117-5.035h44.117
			c9.414-0.028,17.039-7.653,17.067-17.067v-27.051c-0.002-4.547-1.814-8.907-5.035-12.117l-6.997-6.997
			c-3.21-3.221-7.57-5.032-12.117-5.035H169.216c-4.547,0.002-8.907,1.814-12.117,5.035l-6.997,6.997
			c-3.221,3.21-5.033,7.57-5.035,12.117v18.517c0,9.426-7.641,17.067-17.067,17.067c-9.426,0-17.067-7.641-17.067-17.067v-52.651
			c0.002-4.547,1.814-8.907,5.035-12.117l32.597-32.597c3.21-3.221,7.57-5.032,12.117-5.035h165.035
			c4.547,0.002,8.907,1.814,12.117,5.035l32.597,32.597C373.653,126.175,375.464,130.535,375.467,135.083L375.467,135.083z"/>
		<path style="fill:#FFC500;" d="M221.867,366.933H256c9.426,0,17.067,7.641,17.067,17.067v34.133
			c0,9.426-7.641,17.067-17.067,17.067h-34.133c-9.426,0-17.067-7.641-17.067-17.067V384
			C204.8,374.574,212.441,366.933,221.867,366.933z"/>
	</g>
	<g>
		<path d="M452.267,0H59.733C26.759,0.037,0.037,26.759,0,59.733v392.533C0.037,485.241,26.759,511.963,59.733,512h392.533
			c32.974-0.037,59.696-26.759,59.733-59.733V59.733C511.963,26.759,485.241,0.037,452.267,0z M494.933,452.267
			c-0.028,23.553-19.114,42.639-42.667,42.667H59.733c-23.553-0.028-42.639-19.114-42.667-42.667V59.733
			c0.028-23.553,19.114-42.639,42.667-42.667h392.533c23.553,0.028,42.639,19.114,42.667,42.667V452.267z"/>
		<path d="M72.533,102.4c16.495,0,29.867-13.372,29.867-29.867S89.028,42.667,72.533,42.667S42.667,56.038,42.667,72.533
			C42.687,89.02,56.047,102.38,72.533,102.4L72.533,102.4z M72.533,59.733c7.069,0,12.8,5.731,12.8,12.8
			c0,7.069-5.731,12.8-12.8,12.8c-7.069,0-12.8-5.731-12.8-12.8C59.741,65.467,65.467,59.741,72.533,59.733z"/>
		<path d="M439.467,42.667c-16.495,0-29.867,13.372-29.867,29.867s13.372,29.867,29.867,29.867
			c16.495,0,29.867-13.372,29.867-29.867C469.313,56.047,455.953,42.687,439.467,42.667L439.467,42.667z M439.467,85.333
			c-7.069,0-12.8-5.731-12.8-12.8c0-7.069,5.731-12.8,12.8-12.8c7.069,0,12.8,5.731,12.8,12.8
			C452.259,79.599,446.533,85.326,439.467,85.333L439.467,85.333z"/>
		<path d="M72.533,409.6c-16.495,0-29.867,13.372-29.867,29.867c0,16.495,13.372,29.867,29.867,29.867s29.867-13.372,29.867-29.867
			C102.38,422.98,89.02,409.62,72.533,409.6L72.533,409.6z M72.533,452.267c-7.069,0-12.8-5.731-12.8-12.8
			c0-7.069,5.731-12.8,12.8-12.8c7.069,0,12.8,5.731,12.8,12.8C85.326,446.533,79.599,452.259,72.533,452.267z"/>
		<path d="M439.467,409.6c-16.495,0-29.867,13.372-29.867,29.867c0,16.495,13.372,29.867,29.867,29.867
			c16.495,0,29.867-13.372,29.867-29.867C469.313,422.98,455.953,409.62,439.467,409.6L439.467,409.6z M439.467,452.267
			c-7.069,0-12.8-5.731-12.8-12.8c0-7.069,5.731-12.8,12.8-12.8c7.069,0,12.8,5.731,12.8,12.8
			C452.259,446.533,446.533,452.259,439.467,452.267L439.467,452.267z"/>
		<path d="M418.133,206.263v-71.192c0.019-6.794-2.682-13.314-7.5-18.104L377.967,84.3c-4.79-4.818-11.31-7.519-18.104-7.5H160.671
			c-6.794-0.019-13.314,2.682-18.104,7.5L109.9,116.966c-4.818,4.79-7.519,11.31-7.5,18.104v52.663
			c0.015,14.132,11.468,25.585,25.6,25.6h34.133c14.132-0.015,25.585-11.468,25.6-25.6v-18.529c-0.006-2.266,0.894-4.44,2.5-6.038
			l7.067-7.067c1.598-1.606,3.772-2.506,6.037-2.5h105.325c2.266-0.006,4.44,0.894,6.038,2.5l7.067,7.067
			c1.606,1.598,2.506,3.772,2.5,6.038v27.062c-0.006,4.71-3.823,8.527-8.533,8.533h-44.129c-6.794-0.019-13.314,2.682-18.104,7.5
			l-49.733,49.733c-4.818,4.79-7.519,11.31-7.5,18.104v44.129c0.029,2.393,1.05,4.666,2.819,6.277
			c1.77,1.611,4.129,2.414,6.514,2.219c0.262,0.025,0.529,0.037,0.8,0.037h83.733c14.132-0.015,25.585-11.468,25.6-25.6v-27.063
			c-0.006-2.266,0.894-4.44,2.5-6.038l7.067-7.067c1.598-1.606,3.772-2.506,6.037-2.5h28.525c6.794,0.019,13.314-2.682,18.104-7.5
			l32.667-32.666C415.452,219.577,418.153,213.057,418.133,206.263L418.133,206.263z M401.067,206.263
			c0.006,2.266-0.894,4.44-2.5,6.038L365.9,244.966c-1.598,1.606-3.772,2.506-6.038,2.5h-28.525
			c-6.794-0.019-13.314,2.682-18.104,7.5l-7.067,7.067c-4.818,4.79-7.519,11.31-7.5,18.104V307.2
			c-0.006,4.71-3.823,8.527-8.533,8.533h-76.8v-35.596c-0.006-2.266,0.894-4.44,2.5-6.038l49.733-49.733
			c1.598-1.606,3.772-2.506,6.038-2.5h44.129c14.132-0.015,25.585-11.468,25.6-25.6v-27.063c0.019-6.794-2.682-13.314-7.5-18.104
			l-7.067-7.067c-4.79-4.818-11.31-7.519-18.104-7.5H203.337c-6.794-0.019-13.314,2.682-18.104,7.5l-7.067,7.067
			c-4.818,4.79-7.519,11.31-7.5,18.104v18.529c-0.006,4.71-3.823,8.527-8.533,8.533H128c-4.71-0.006-8.527-3.823-8.533-8.533
			v-52.663c-0.006-2.266,0.894-4.44,2.5-6.038l32.666-32.666c1.598-1.606,3.772-2.506,6.037-2.5h199.192
			c2.266-0.006,4.44,0.894,6.038,2.5l32.666,32.666c1.606,1.598,2.506,3.772,2.5,6.038V206.263z"/>
		<path d="M290.133,358.4h-68.267c-14.132,0.015-25.585,11.468-25.6,25.6v34.133c0.015,14.132,11.468,25.585,25.6,25.6h68.267
			c14.132-0.015,25.585-11.468,25.6-25.6V384C315.718,369.868,304.265,358.415,290.133,358.4z M298.667,418.133
			c-0.006,4.71-3.823,8.527-8.533,8.533h-68.267c-4.71-0.006-8.527-3.823-8.533-8.533V384c0.006-4.71,3.823-8.527,8.533-8.533
			h68.267c4.71,0.006,8.527,3.823,8.533,8.533V418.133z"/>
	</g>
</g>
<g>
</g>
<g>
</g>
<g>
</g>
<g>
</g>
<g>
</g>
<g>
</g>
<g>
</g>
<g>
</g>
<g>
</g>
<g>
</g>
<g>
</g>
<g>
</g>
<g>
</g>
<g>
</g>
<g>
</g>
</svg>
